<mxfile host="65bd71144e">
    <diagram id="FtEbee-XCXTfJkGimnTI" name="Page-1">
        <mxGraphModel dx="2839" dy="1458" grid="1" gridSize="10" guides="1" tooltips="1" connect="1" arrows="1" fold="1" page="1" pageScale="1" pageWidth="850" pageHeight="1100" math="0" shadow="0">
            <root>
                <mxCell id="0"/>
                <mxCell id="1" parent="0"/>
                <mxCell id="172" value="" style="ellipse;whiteSpace=wrap;html=1;fontSize=22;shadow=0;" vertex="1" parent="1">
                    <mxGeometry x="830" y="2630" width="330" height="210" as="geometry"/>
                </mxCell>
                <mxCell id="156" value="" style="ellipse;whiteSpace=wrap;html=1;fontSize=22;shadow=0;" vertex="1" parent="1">
                    <mxGeometry x="1630" y="2340" width="330" height="210" as="geometry"/>
                </mxCell>
                <mxCell id="138" value="" style="ellipse;whiteSpace=wrap;html=1;fontSize=22;shadow=0;" vertex="1" parent="1">
                    <mxGeometry x="-260" y="1600" width="420" height="280" as="geometry"/>
                </mxCell>
                <mxCell id="139" value="" style="ellipse;whiteSpace=wrap;html=1;fontSize=22;shadow=0;" vertex="1" parent="1">
                    <mxGeometry x="-685" y="1255" width="520" height="370" as="geometry"/>
                </mxCell>
                <mxCell id="140" value="" style="ellipse;whiteSpace=wrap;html=1;fontSize=22;shadow=0;" vertex="1" parent="1">
                    <mxGeometry x="425" y="2040" width="330" height="210" as="geometry"/>
                </mxCell>
                <mxCell id="141" value="" style="ellipse;whiteSpace=wrap;html=1;fontSize=22;shadow=0;" vertex="1" parent="1">
                    <mxGeometry x="857.5" y="2355" width="330" height="210" as="geometry"/>
                </mxCell>
                <mxCell id="142" value="" style="ellipse;whiteSpace=wrap;html=1;fontSize=22;shadow=0;" vertex="1" parent="1">
                    <mxGeometry x="1240" y="2360" width="330" height="210" as="geometry"/>
                </mxCell>
                <mxCell id="143" value="" style="ellipse;whiteSpace=wrap;html=1;fontSize=22;shadow=0;" vertex="1" parent="1">
                    <mxGeometry x="280" y="1685" width="330" height="210" as="geometry"/>
                </mxCell>
                <mxCell id="144" value="" style="ellipse;whiteSpace=wrap;html=1;fontSize=22;shadow=0;" vertex="1" parent="1">
                    <mxGeometry x="-240" y="1990" width="330" height="210" as="geometry"/>
                </mxCell>
                <mxCell id="134" value="" style="ellipse;whiteSpace=wrap;html=1;fontSize=22;shadow=0;" vertex="1" parent="1">
                    <mxGeometry x="820" y="2000" width="550" height="330" as="geometry"/>
                </mxCell>
                <mxCell id="133" value="" style="ellipse;whiteSpace=wrap;html=1;fontSize=22;shadow=0;" vertex="1" parent="1">
                    <mxGeometry x="860" y="1755" width="330" height="210" as="geometry"/>
                </mxCell>
                <mxCell id="128" value="" style="ellipse;whiteSpace=wrap;html=1;fontSize=22;shadow=0;" vertex="1" parent="1">
                    <mxGeometry x="1060" y="1430" width="720" height="410" as="geometry"/>
                </mxCell>
                <mxCell id="127" value="" style="ellipse;whiteSpace=wrap;html=1;fontSize=22;shadow=0;" vertex="1" parent="1">
                    <mxGeometry x="2030" y="1560" width="330" height="210" as="geometry"/>
                </mxCell>
                <mxCell id="126" value="" style="ellipse;whiteSpace=wrap;html=1;fontSize=22;shadow=0;" vertex="1" parent="1">
                    <mxGeometry x="1560" y="1140" width="330" height="210" as="geometry"/>
                </mxCell>
                <mxCell id="13" value="" style="ellipse;whiteSpace=wrap;html=1;fontSize=22;shadow=0;" parent="1" vertex="1">
                    <mxGeometry x="160" y="230" width="910" height="380" as="geometry"/>
                </mxCell>
                <mxCell id="14" value="" style="ellipse;whiteSpace=wrap;html=1;fontSize=22;shadow=0;" parent="1" vertex="1">
                    <mxGeometry x="-197.5" y="345" width="330" height="210" as="geometry"/>
                </mxCell>
                <mxCell id="3" value="Dotted lines indicate Routes&lt;br&gt;Solid Lines indicate component nest&lt;br&gt;Elispse groupings are all components on the same route" style="text;html=1;align=center;verticalAlign=middle;resizable=0;points=[];autosize=1;strokeColor=none;fillColor=none;fontSize=22;" parent="1" vertex="1">
                    <mxGeometry x="972.5" y="160" width="570" height="90" as="geometry"/>
                </mxCell>
                <mxCell id="8" value="Home Page" style="whiteSpace=wrap;html=1;fontSize=22;" parent="1" vertex="1">
                    <mxGeometry x="632.5" y="290" width="120" height="60" as="geometry"/>
                </mxCell>
                <mxCell id="9" value="About Page" style="whiteSpace=wrap;html=1;fontSize=22;" parent="1" vertex="1">
                    <mxGeometry x="-92.5" y="405" width="130" height="60" as="geometry"/>
                </mxCell>
                <mxCell id="19" value="" style="endArrow=none;dashed=1;html=1;dashPattern=1 3;strokeWidth=2;fontSize=22;exitX=1;exitY=0.5;exitDx=0;exitDy=0;entryX=0;entryY=0.5;entryDx=0;entryDy=0;" parent="1" source="9" target="27" edge="1">
                    <mxGeometry width="50" height="50" relative="1" as="geometry">
                        <mxPoint x="622.5" y="800" as="sourcePoint"/>
                        <mxPoint x="512.5" y="500" as="targetPoint"/>
                        <Array as="points">
                            <mxPoint x="342.5" y="500"/>
                        </Array>
                    </mxGeometry>
                </mxCell>
                <mxCell id="27" value="Navbar" style="whiteSpace=wrap;html=1;shadow=0;fontSize=22;" parent="1" vertex="1">
                    <mxGeometry x="522.5" y="470" width="120" height="60" as="geometry"/>
                </mxCell>
                <mxCell id="31" value="" style="endArrow=classic;html=1;fontSize=22;entryX=0.5;entryY=0;entryDx=0;entryDy=0;exitX=0.5;exitY=1;exitDx=0;exitDy=0;" parent="1" source="8" target="27" edge="1">
                    <mxGeometry width="50" height="50" relative="1" as="geometry">
                        <mxPoint x="622.5" y="510" as="sourcePoint"/>
                        <mxPoint x="672.5" y="450" as="targetPoint"/>
                        <Array as="points"/>
                    </mxGeometry>
                </mxCell>
                <mxCell id="83" value="" style="ellipse;whiteSpace=wrap;html=1;fontSize=22;shadow=0;" parent="1" vertex="1">
                    <mxGeometry x="-130" y="767.5" width="330" height="210" as="geometry"/>
                </mxCell>
                <mxCell id="84" value="" style="ellipse;whiteSpace=wrap;html=1;fontSize=22;shadow=0;" parent="1" vertex="1">
                    <mxGeometry x="850" y="745" width="330" height="210" as="geometry"/>
                </mxCell>
                <mxCell id="85" value="RegistrationPage" style="whiteSpace=wrap;html=1;shadow=0;fontSize=22;" parent="1" vertex="1">
                    <mxGeometry x="-57.5" y="827.5" width="185" height="60" as="geometry"/>
                </mxCell>
                <mxCell id="86" value="LoginPage" style="whiteSpace=wrap;html=1;shadow=0;fontSize=22;" parent="1" vertex="1">
                    <mxGeometry x="945" y="805" width="135" height="60" as="geometry"/>
                </mxCell>
                <mxCell id="87" value="" style="endArrow=none;dashed=1;html=1;fontSize=22;entryX=0.5;entryY=1;entryDx=0;entryDy=0;exitX=0.5;exitY=0;exitDx=0;exitDy=0;" parent="1" source="86" target="27" edge="1">
                    <mxGeometry width="50" height="50" relative="1" as="geometry">
                        <mxPoint x="694.0900000000001" y="560.98" as="sourcePoint"/>
                        <mxPoint x="850" y="90" as="targetPoint"/>
                        <Array as="points"/>
                    </mxGeometry>
                </mxCell>
                <mxCell id="88" value="" style="endArrow=none;dashed=1;html=1;fontSize=22;exitX=0.5;exitY=0;exitDx=0;exitDy=0;entryX=0.5;entryY=1;entryDx=0;entryDy=0;" parent="1" source="85" edge="1" target="27">
                    <mxGeometry width="50" height="50" relative="1" as="geometry">
                        <mxPoint x="239.05499999999984" y="59" as="sourcePoint"/>
                        <mxPoint x="540" y="120" as="targetPoint"/>
                        <Array as="points"/>
                    </mxGeometry>
                </mxCell>
                <mxCell id="110" value="" style="ellipse;whiteSpace=wrap;html=1;fontSize=22;shadow=0;" vertex="1" parent="1">
                    <mxGeometry x="260" y="1061.25" width="660" height="457.5" as="geometry"/>
                </mxCell>
                <mxCell id="131" style="edgeStyle=none;html=1;entryX=0.5;entryY=0;entryDx=0;entryDy=0;endArrow=classic;endFill=1;" edge="1" parent="1" source="111" target="125">
                    <mxGeometry relative="1" as="geometry"/>
                </mxCell>
                <mxCell id="111" value="UserMenu" style="whiteSpace=wrap;html=1;shadow=0;fontSize=22;" vertex="1" parent="1">
                    <mxGeometry x="500" y="1128.75" width="135" height="60" as="geometry"/>
                </mxCell>
                <mxCell id="162" style="edgeStyle=none;html=1;entryX=0.5;entryY=1;entryDx=0;entryDy=0;endArrow=classic;endFill=1;" edge="1" parent="1" source="112" target="132">
                    <mxGeometry relative="1" as="geometry"/>
                </mxCell>
                <mxCell id="112" value="UserClientMonthlyView" style="whiteSpace=wrap;html=1;shadow=0;fontSize=22;" vertex="1" parent="1">
                    <mxGeometry x="470" y="2120" width="250" height="60" as="geometry"/>
                </mxCell>
                <mxCell id="136" style="edgeStyle=none;html=1;entryX=0.5;entryY=0;entryDx=0;entryDy=0;endArrow=classic;endFill=1;" edge="1" parent="1" source="113" target="135">
                    <mxGeometry relative="1" as="geometry"/>
                </mxCell>
                <mxCell id="154" style="edgeStyle=none;html=1;entryX=0.5;entryY=0;entryDx=0;entryDy=0;dashed=1;endArrow=none;endFill=0;" edge="1" parent="1" source="113" target="121">
                    <mxGeometry relative="1" as="geometry">
                        <Array as="points">
                            <mxPoint x="1280" y="2220"/>
                        </Array>
                    </mxGeometry>
                </mxCell>
                <mxCell id="155" style="edgeStyle=none;html=1;entryX=0.5;entryY=0;entryDx=0;entryDy=0;dashed=1;endArrow=none;endFill=0;" edge="1" parent="1" source="113" target="120">
                    <mxGeometry relative="1" as="geometry">
                        <Array as="points">
                            <mxPoint x="1190" y="2100"/>
                            <mxPoint x="1250" y="2170"/>
                        </Array>
                    </mxGeometry>
                </mxCell>
                <mxCell id="157" style="edgeStyle=none;html=1;entryX=0.5;entryY=0;entryDx=0;entryDy=0;dashed=1;endArrow=none;endFill=0;" edge="1" parent="1" source="113" target="122">
                    <mxGeometry relative="1" as="geometry"/>
                </mxCell>
                <mxCell id="113" value="UserClients" style="whiteSpace=wrap;html=1;shadow=0;fontSize=22;" vertex="1" parent="1">
                    <mxGeometry x="965" y="2040" width="135" height="60" as="geometry"/>
                </mxCell>
                <mxCell id="151" style="edgeStyle=none;html=1;entryX=0.5;entryY=0;entryDx=0;entryDy=0;dashed=1;endArrow=none;endFill=0;" edge="1" parent="1" source="114" target="113">
                    <mxGeometry relative="1" as="geometry"/>
                </mxCell>
                <mxCell id="114" value="UserClientList" style="whiteSpace=wrap;html=1;shadow=0;fontSize=22;" vertex="1" parent="1">
                    <mxGeometry x="960" y="1820" width="170" height="60" as="geometry"/>
                </mxCell>
                <mxCell id="115" value="UserNotes" style="whiteSpace=wrap;html=1;shadow=0;fontSize=22;" vertex="1" parent="1">
                    <mxGeometry x="1655" y="1215" width="135" height="60" as="geometry"/>
                </mxCell>
                <mxCell id="169" style="edgeStyle=none;html=1;entryX=0.5;entryY=0;entryDx=0;entryDy=0;endArrow=classic;endFill=1;" edge="1" parent="1" source="116" target="168">
                    <mxGeometry relative="1" as="geometry"/>
                </mxCell>
                <mxCell id="170" style="edgeStyle=none;html=1;entryX=0.5;entryY=0;entryDx=0;entryDy=0;endArrow=classic;endFill=1;" edge="1" parent="1" source="116" target="165">
                    <mxGeometry relative="1" as="geometry"/>
                </mxCell>
                <mxCell id="116" value="UserProfile" style="whiteSpace=wrap;html=1;shadow=0;fontSize=22;" vertex="1" parent="1">
                    <mxGeometry x="-397.5" y="1315" width="135" height="60" as="geometry"/>
                </mxCell>
                <mxCell id="159" style="edgeStyle=none;html=1;entryX=0.5;entryY=1;entryDx=0;entryDy=0;endArrow=classic;endFill=1;" edge="1" parent="1" source="117" target="132">
                    <mxGeometry relative="1" as="geometry"/>
                </mxCell>
                <mxCell id="117" value="UserMonthlyView" style="whiteSpace=wrap;html=1;shadow=0;fontSize=22;" vertex="1" parent="1">
                    <mxGeometry x="-170" y="2060" width="200" height="60" as="geometry"/>
                </mxCell>
                <mxCell id="118" value="UserReports" style="whiteSpace=wrap;html=1;shadow=0;fontSize=22;" vertex="1" parent="1">
                    <mxGeometry x="2120" y="1630" width="170" height="60" as="geometry"/>
                </mxCell>
                <mxCell id="171" style="edgeStyle=none;html=1;entryX=0.5;entryY=0;entryDx=0;entryDy=0;endArrow=classic;endFill=1;" edge="1" parent="1" source="119" target="166">
                    <mxGeometry relative="1" as="geometry"/>
                </mxCell>
                <mxCell id="176" style="edgeStyle=none;html=1;entryX=0.5;entryY=0;entryDx=0;entryDy=0;endArrow=classic;endFill=1;" edge="1" parent="1" target="175">
                    <mxGeometry relative="1" as="geometry">
                        <mxPoint x="1390" y="1550" as="sourcePoint"/>
                    </mxGeometry>
                </mxCell>
                <mxCell id="178" style="edgeStyle=none;html=1;entryX=0.5;entryY=0;entryDx=0;entryDy=0;endArrow=classic;endFill=1;" edge="1" parent="1" source="119" target="177">
                    <mxGeometry relative="1" as="geometry"/>
                </mxCell>
                <mxCell id="119" value="UserRoutes" style="whiteSpace=wrap;html=1;shadow=0;fontSize=22;" vertex="1" parent="1">
                    <mxGeometry x="1280" y="1490" width="170" height="60" as="geometry"/>
                </mxCell>
                <mxCell id="174" style="edgeStyle=none;html=1;entryX=0.5;entryY=0;entryDx=0;entryDy=0;endArrow=none;endFill=0;dashed=1;" edge="1" parent="1" source="120" target="173">
                    <mxGeometry relative="1" as="geometry"/>
                </mxCell>
                <mxCell id="120" value="UserClientContactsList" style="whiteSpace=wrap;html=1;shadow=0;fontSize=22;" vertex="1" parent="1">
                    <mxGeometry x="910" y="2430" width="250" height="60" as="geometry"/>
                </mxCell>
                <mxCell id="121" value="UserClientNotes" style="whiteSpace=wrap;html=1;shadow=0;fontSize=22;" vertex="1" parent="1">
                    <mxGeometry x="1315" y="2430" width="170" height="60" as="geometry"/>
                </mxCell>
                <mxCell id="122" value="UserClientProfile" style="whiteSpace=wrap;html=1;shadow=0;fontSize=22;" vertex="1" parent="1">
                    <mxGeometry x="1690" y="2415" width="190" height="60" as="geometry"/>
                </mxCell>
                <mxCell id="164" style="edgeStyle=none;html=1;entryX=0.5;entryY=0;entryDx=0;entryDy=0;endArrow=classic;endFill=1;" edge="1" parent="1" source="124" target="152">
                    <mxGeometry relative="1" as="geometry"/>
                </mxCell>
                <mxCell id="124" value="UserCalendar" style="whiteSpace=wrap;html=1;shadow=0;fontSize=22;" vertex="1" parent="1">
                    <mxGeometry x="-90" y="1665" width="170" height="60" as="geometry"/>
                </mxCell>
                <mxCell id="145" style="edgeStyle=none;html=1;entryX=0;entryY=0.5;entryDx=0;entryDy=0;endArrow=none;endFill=0;dashed=1;exitX=0.5;exitY=1;exitDx=0;exitDy=0;" edge="1" parent="1" source="111" target="115">
                    <mxGeometry relative="1" as="geometry"/>
                </mxCell>
                <mxCell id="146" style="edgeStyle=none;html=1;entryX=0.5;entryY=0;entryDx=0;entryDy=0;dashed=1;endArrow=none;endFill=0;" edge="1" parent="1" target="124">
                    <mxGeometry relative="1" as="geometry">
                        <mxPoint x="568" y="1190" as="sourcePoint"/>
                    </mxGeometry>
                </mxCell>
                <mxCell id="147" style="edgeStyle=none;html=1;entryX=0.5;entryY=0;entryDx=0;entryDy=0;dashed=1;endArrow=none;endFill=0;exitX=0.5;exitY=1;exitDx=0;exitDy=0;" edge="1" parent="1" source="111" target="116">
                    <mxGeometry relative="1" as="geometry">
                        <Array as="points"/>
                    </mxGeometry>
                </mxCell>
                <mxCell id="148" style="edgeStyle=none;html=1;entryX=0.5;entryY=0;entryDx=0;entryDy=0;dashed=1;endArrow=none;endFill=0;" edge="1" parent="1" target="114">
                    <mxGeometry relative="1" as="geometry">
                        <mxPoint x="580" y="1190" as="sourcePoint"/>
                        <Array as="points">
                            <mxPoint x="860" y="1430"/>
                        </Array>
                    </mxGeometry>
                </mxCell>
                <mxCell id="149" style="edgeStyle=none;html=1;entryX=0.5;entryY=0;entryDx=0;entryDy=0;dashed=1;endArrow=none;endFill=0;" edge="1" parent="1" target="119">
                    <mxGeometry relative="1" as="geometry">
                        <mxPoint x="580" y="1190" as="sourcePoint"/>
                    </mxGeometry>
                </mxCell>
                <mxCell id="150" style="edgeStyle=none;html=1;entryX=0.5;entryY=0;entryDx=0;entryDy=0;dashed=1;endArrow=none;endFill=0;exitX=0.5;exitY=1;exitDx=0;exitDy=0;" edge="1" parent="1" source="111" target="118">
                    <mxGeometry relative="1" as="geometry">
                        <Array as="points">
                            <mxPoint x="1400" y="1350"/>
                        </Array>
                    </mxGeometry>
                </mxCell>
                <mxCell id="161" style="edgeStyle=none;html=1;entryX=0.5;entryY=0;entryDx=0;entryDy=0;endArrow=classic;endFill=1;" edge="1" parent="1" source="125" target="132">
                    <mxGeometry relative="1" as="geometry">
                        <Array as="points"/>
                    </mxGeometry>
                </mxCell>
                <mxCell id="125" value="DailyView" style="whiteSpace=wrap;html=1;shadow=0;fontSize=22;" vertex="1" parent="1">
                    <mxGeometry x="600" y="1360" width="135" height="60" as="geometry"/>
                </mxCell>
                <mxCell id="129" style="edgeStyle=none;html=1;entryX=0.5;entryY=0;entryDx=0;entryDy=0;dashed=1;endArrow=none;endFill=0;" edge="1" parent="1" source="85" target="116">
                    <mxGeometry relative="1" as="geometry"/>
                </mxCell>
                <mxCell id="130" style="edgeStyle=none;html=1;entryX=0.5;entryY=0;entryDx=0;entryDy=0;dashed=1;endArrow=none;endFill=0;exitX=0.5;exitY=1;exitDx=0;exitDy=0;" edge="1" parent="1" source="86" target="111">
                    <mxGeometry relative="1" as="geometry">
                        <mxPoint x="103.89400921658944" y="897.5" as="sourcePoint"/>
                        <mxPoint x="577.5" y="1138.75" as="targetPoint"/>
                    </mxGeometry>
                </mxCell>
                <mxCell id="132" value="EventForm" style="whiteSpace=wrap;html=1;shadow=0;fontSize=22;" vertex="1" parent="1">
                    <mxGeometry x="360" y="1755" width="170" height="60" as="geometry"/>
                </mxCell>
                <mxCell id="158" style="edgeStyle=none;html=1;entryX=1;entryY=0.5;entryDx=0;entryDy=0;dashed=1;endArrow=none;endFill=0;" edge="1" parent="1" source="135" target="112">
                    <mxGeometry relative="1" as="geometry"/>
                </mxCell>
                <mxCell id="163" style="edgeStyle=none;html=1;entryX=0.5;entryY=1;entryDx=0;entryDy=0;endArrow=classic;endFill=1;" edge="1" parent="1" source="135" target="132">
                    <mxGeometry relative="1" as="geometry"/>
                </mxCell>
                <mxCell id="135" value="UserClientWeeklyView" style="whiteSpace=wrap;html=1;shadow=0;fontSize=22;" vertex="1" parent="1">
                    <mxGeometry x="927.5" y="2170" width="252.5" height="60" as="geometry"/>
                </mxCell>
                <mxCell id="153" style="edgeStyle=none;html=1;dashed=1;endArrow=none;endFill=0;" edge="1" parent="1" source="152" target="117">
                    <mxGeometry relative="1" as="geometry"/>
                </mxCell>
                <mxCell id="160" style="edgeStyle=none;html=1;entryX=0;entryY=0.5;entryDx=0;entryDy=0;endArrow=classic;endFill=1;" edge="1" parent="1" source="152" target="132">
                    <mxGeometry relative="1" as="geometry"/>
                </mxCell>
                <mxCell id="152" value="UserWeeklyView" style="whiteSpace=wrap;html=1;shadow=0;fontSize=22;" vertex="1" parent="1">
                    <mxGeometry x="-180" y="1760" width="170" height="60" as="geometry"/>
                </mxCell>
                <mxCell id="165" value="UserParameters" style="whiteSpace=wrap;html=1;shadow=0;fontSize=22;" vertex="1" parent="1">
                    <mxGeometry x="-635" y="1445" width="190" height="60" as="geometry"/>
                </mxCell>
                <mxCell id="166" value="UserTempParameters" style="whiteSpace=wrap;html=1;shadow=0;fontSize=22;" vertex="1" parent="1">
                    <mxGeometry x="1310" y="1630" width="260" height="60" as="geometry"/>
                </mxCell>
                <mxCell id="168" value="UserNotifications" style="whiteSpace=wrap;html=1;shadow=0;fontSize=22;" vertex="1" parent="1">
                    <mxGeometry x="-397.5" y="1445" width="200" height="60" as="geometry"/>
                </mxCell>
                <mxCell id="173" value="UserClientContact" style="whiteSpace=wrap;html=1;shadow=0;fontSize=22;" vertex="1" parent="1">
                    <mxGeometry x="882.5" y="2705" width="250" height="60" as="geometry"/>
                </mxCell>
                <mxCell id="179" style="edgeStyle=none;html=1;entryX=1;entryY=0.5;entryDx=0;entryDy=0;endArrow=classic;endFill=1;" edge="1" parent="1" source="175" target="132">
                    <mxGeometry relative="1" as="geometry"/>
                </mxCell>
                <mxCell id="175" value="DailyView" style="whiteSpace=wrap;html=1;shadow=0;fontSize=22;" vertex="1" parent="1">
                    <mxGeometry x="1140" y="1640" width="135" height="60" as="geometry"/>
                </mxCell>
                <mxCell id="177" value="RouteOptions" style="whiteSpace=wrap;html=1;shadow=0;fontSize=22;" vertex="1" parent="1">
                    <mxGeometry x="1600" y="1590" width="160" height="60" as="geometry"/>
                </mxCell>
            </root>
        </mxGraphModel>
    </diagram>
</mxfile>